<svg width="1116" height="637" viewBox="0 0 1116 637" fill="none" xmlns="http://www.w3.org/2000/svg">
<path d="M506.998 595.73C669.701 595.73 801.597 462.371 801.597 297.865C801.597 133.359 669.701 0 506.998 0C344.296 0 212.399 133.359 212.399 297.865C212.399 462.371 344.296 595.73 506.998 595.73Z" fill="#F2F2F2"/>
<path d="M251.892 637C316.449 637 368.783 628.533 368.783 618.09C368.783 607.646 316.449 599.18 251.892 599.18C187.334 599.18 135 607.646 135 618.09C135 628.533 187.334 637 251.892 637Z" fill="#F2F2F2"/>
<path d="M822.134 617.778C922.024 617.778 1003 604.678 1003 588.519C1003 572.359 922.024 559.259 822.134 559.259C722.244 559.259 641.268 572.359 641.268 588.519C641.268 604.678 722.244 617.778 822.134 617.778Z" fill="#F2F2F2"/>
<path d="M781.948 307.276C781.948 307.276 783.488 312.466 774.762 317.136C766.037 321.807 763.47 339.452 773.736 344.642C784.001 349.831 787.081 356.578 781.948 361.249C776.815 365.919 767.576 378.375 779.895 381.489C792.214 384.602 793.754 390.83 790.161 393.425C786.568 396.02 798.373 388.754 798.373 388.754C798.373 388.754 800.426 401.209 811.205 398.096C821.984 394.982 852.267 335.819 836.869 327.516C821.471 319.212 781.948 307.276 781.948 307.276Z" fill="#2F2E41"/>
<path d="M800.553 357.388C800.553 357.388 805.877 376.229 796.56 377.575C790.778 378.486 785.298 380.794 780.587 384.304L797.891 407.183H829.836L849.802 386.996C849.802 386.996 823.181 366.808 828.505 354.696C833.83 342.584 800.553 357.388 800.553 357.388Z" fill="#FFB9B9"/>
<path opacity="0.1" d="M800.553 357.388C800.553 357.388 805.877 376.229 796.56 377.575C790.778 378.486 785.298 380.794 780.587 384.304L797.891 407.183H829.836L849.802 386.996C849.802 386.996 823.181 366.808 828.505 354.696C833.83 342.584 800.553 357.388 800.553 357.388Z" fill="black"/>
<path d="M808.54 591.56L839.154 602.327L860.451 603.672L859.12 584.831L815.194 571.696L808.54 591.56Z" fill="#FFB9B9"/>
<path d="M847.808 587.522C847.808 587.522 847.808 606.364 850.47 606.364C853.132 606.364 889.07 602.326 899.719 606.364C910.367 610.401 926.34 595.597 918.354 587.522C910.367 579.447 897.34 567.335 889.212 570.027C881.084 572.718 847.808 579.447 847.808 579.447V587.522Z" fill="#575A89"/>
<path d="M749.972 570.027C749.972 570.027 733.999 602.327 744.648 605.019C755.296 607.71 767.276 603.673 768.607 602.327C769.938 600.981 788.573 595.598 791.235 598.29C793.897 600.981 793.897 587.523 793.897 587.523L749.972 570.027Z" fill="#575A89"/>
<path d="M763.284 525.615C763.284 525.615 737.994 560.606 756.629 570.027C775.264 579.448 864.445 579.448 871.1 570.027C877.755 560.606 880.417 530.998 871.1 528.307C861.783 525.615 763.284 525.615 763.284 525.615Z" fill="#2F2E41"/>
<path opacity="0.2" d="M763.284 525.615C763.284 525.615 737.994 560.606 756.629 570.027C775.264 579.448 864.445 579.448 871.1 570.027C877.755 560.606 880.417 530.998 871.1 528.307C861.783 525.615 763.284 525.615 763.284 525.615Z" fill="black"/>
<path d="M811.202 366.808C828.109 366.808 841.816 352.95 841.816 335.855C841.816 318.759 828.109 304.901 811.202 304.901C794.294 304.901 780.587 318.759 780.587 335.855C780.587 352.95 794.294 366.808 811.202 366.808Z" fill="#FFB9B9"/>
<path d="M763.284 384.304L789.906 378.921C789.906 378.921 796.561 400.454 817.858 396.417C839.155 392.379 844.479 378.921 844.479 378.921C844.479 378.921 860.452 385.65 861.783 385.65C863.114 385.65 880.418 392.379 880.418 396.417C880.418 400.454 860.452 440.829 860.452 440.829L863.114 513.503L764.616 510.811L771.271 439.483L763.284 384.304Z" fill="#5656EF"/>
<path d="M748.639 419.295C748.639 419.295 740.653 490.624 745.977 496.007C751.302 501.39 772.599 516.194 772.599 516.194V500.044L761.95 479.857L772.599 432.753L748.639 419.295Z" fill="#FFB9B9"/>
<path d="M886.405 417.276C886.405 417.276 881.747 490.623 881.747 493.315C881.747 496.007 869.767 505.427 865.774 505.427C861.781 505.427 859.118 498.698 859.118 498.698L868.436 487.932L861.781 432.753L886.405 417.276Z" fill="#FFB9B9"/>
<path d="M873.761 520.232C873.761 520.232 933.659 486.586 934.99 520.232C936.321 553.877 904.375 567.335 904.375 567.335C904.375 567.335 821.85 592.356 818.522 583.21C815.194 574.065 808.539 559.261 813.863 557.915C819.188 556.569 825.843 553.877 828.505 556.569C831.167 559.261 864.444 536.382 864.444 536.382L873.761 520.232Z" fill="#2F2E41"/>
<path opacity="0.2" d="M901.711 516.195C901.711 516.195 889.732 521.578 885.738 525.615C881.745 529.653 864.441 536.382 864.441 536.382" stroke="black" stroke-width="2" stroke-miterlimit="10"/>
<path d="M771.27 386.995L763.284 384.304C763.284 384.304 734.001 415.258 743.318 423.333C752.635 431.407 757.96 434.099 760.622 436.791C763.284 439.482 776.595 440.828 776.595 440.828L771.27 386.995Z" fill="#5656EF"/>
<path d="M868.437 393.724L880.416 396.416C880.416 396.416 889.734 416.603 892.396 419.295C895.058 421.986 888.403 420.64 884.409 426.024C880.416 431.407 876.423 440.828 868.437 440.828C860.45 440.828 849.802 427.37 849.802 427.37L868.437 393.724Z" fill="#5656EF"/>
<path d="M765.946 532.344C765.946 532.344 715.366 496.007 698.062 522.924C680.758 549.84 772.601 586.177 785.912 591.56C799.223 596.944 811.202 602.327 811.202 602.327C811.202 602.327 823.182 572.719 823.182 567.336C823.182 561.952 813.864 561.952 811.202 561.952C808.54 561.952 796.561 559.261 793.898 555.223C791.236 551.186 765.946 532.344 765.946 532.344Z" fill="#2F2E41"/>
<path opacity="0.2" d="M737.995 522.923C737.995 522.923 751.306 533.69 763.285 536.382C775.265 539.073 779.258 545.802 779.258 545.802" stroke="black" stroke-width="2" stroke-miterlimit="10"/>
<path d="M756.764 472.321L757.827 529.304C757.862 531.186 758.632 532.978 759.968 534.289C761.304 535.6 763.098 536.323 764.96 536.302L869.839 535.111C871.626 535.09 873.339 534.385 874.631 533.137C875.924 531.89 876.7 530.193 876.803 528.389L879.986 472.597C880.042 471.628 879.901 470.657 879.572 469.744C879.243 468.831 878.733 467.996 878.073 467.29C877.414 466.584 876.619 466.021 875.736 465.636C874.854 465.252 873.904 465.053 872.943 465.053H763.818C762.88 465.053 761.952 465.242 761.087 465.609C760.222 465.976 759.439 466.514 758.782 467.19C758.125 467.867 757.608 468.669 757.262 469.55C756.915 470.431 756.746 471.373 756.764 472.321Z" fill="#575A89"/>
<path d="M812.836 296.97C812.836 296.97 814.542 302.719 804.875 307.894C795.209 313.068 792.366 332.615 803.738 338.364C815.11 344.113 818.522 351.587 812.836 356.761C807.15 361.936 796.915 375.733 810.561 379.183C824.208 382.632 825.914 389.531 821.934 392.406C817.953 395.281 831.031 387.232 831.031 387.232C831.031 387.232 833.306 401.03 845.247 397.58C857.187 394.131 869.101 331.427 855.791 315.277C843.414 300.261 812.836 296.97 812.836 296.97Z" fill="#2F2E41"/>
<path d="M809.204 291.053C809.207 282.63 834.13 288.682 844.815 300.442C852.215 308.586 863.454 320.838 854.036 329.474C844.618 338.111 870.179 349.432 877.034 352.865C883.89 356.297 897.425 366.794 885.204 373.836C872.982 380.878 873.179 387.986 877.779 389.669C882.378 391.353 867.638 387.167 867.638 387.167C867.638 387.167 869.127 401.074 856.709 401.007C844.29 400.941 808.663 331.936 817.174 312.756C825.088 294.921 809.204 291.053 809.204 291.053Z" fill="#2F2E41"/>
<path d="M814.603 289.207C781.274 287.178 777.93 312.544 777.93 312.544C778.16 327.223 801.215 320.07 807.619 322.259C815.344 316.64 830.235 306.008 840.885 298.42C833.153 292.916 824.045 289.723 814.603 289.207Z" fill="#2F2E41"/>
<path d="M805.106 451.069C805.106 451.069 775.21 309.404 588.088 206.637" stroke="#3F3D56" stroke-width="2" stroke-miterlimit="10"/>
<path d="M595.801 203.547L596.175 205.1L588.607 206.956L590.991 214.454L589.486 214.942L586.583 205.809L595.801 203.547Z" fill="#3F3D56"/>
<path d="M189.081 595.819C189.081 613.762 178.532 620.027 165.518 620.027C165.217 620.027 164.916 620.023 164.615 620.016C164.012 620.003 163.415 619.974 162.825 619.934C151.08 619.093 141.955 612.506 141.955 595.819C141.955 578.55 163.781 556.759 165.421 555.147L165.424 555.144C165.487 555.081 165.518 555.051 165.518 555.051C165.518 555.051 189.081 577.876 189.081 595.819Z" fill="#5656EF"/>
<path d="M164.657 617.281L173.276 605.106L164.636 618.618L164.613 620.016C164.01 620.003 163.413 619.974 162.823 619.934L163.752 601.982L163.744 601.843L163.76 601.817L163.848 600.121L155.187 586.575L163.875 598.85L163.895 599.21L164.597 585.646L157.182 571.649L164.688 583.266L165.418 555.146L165.421 555.051V555.143L165.299 577.317L172.681 568.527L165.269 579.228L165.074 591.371L171.966 579.717L165.045 593.158L164.936 599.909L174.942 583.688L164.899 602.265L164.657 617.281Z" fill="#3F3D56"/>
<path d="M301.468 591.17L306.509 587.384C306.509 587.384 309.845 606.228 306.122 609.051C302.399 611.874 288.438 616.579 288.438 622.226C288.438 627.872 256.792 635.401 255.861 626.931C254.93 618.462 258.653 613.756 258.653 613.756C258.653 613.756 273.545 598.699 275.407 595.876C277.268 593.053 281.922 587.406 281.922 587.406L301.468 591.17Z" fill="#2F2E41"/>
<path d="M227.01 356.842C227.01 356.842 227.149 357.67 227.391 359.185C227.615 360.531 227.922 362.432 228.294 364.775C232.203 388.895 243.605 459.899 242.832 462.242C241.902 465.066 235.386 475.418 242.832 478.241C243.549 478.514 244.322 479.398 245.15 480.791C246.749 483.791 248.067 486.935 249.087 490.183C253.527 503.208 258.274 524.052 261.019 538.489C262.22 544.832 263.039 549.932 263.281 552.605C263.365 553.222 263.375 553.848 263.309 554.468C262.378 558.233 268.894 571.408 271.686 575.172C274.478 578.936 279.132 582.701 278.201 586.465C277.27 590.229 301.47 600.581 304.263 593.994C307.055 587.406 307.055 583.642 307.986 581.759C308.916 579.877 309.847 566.702 305.193 564.82C300.539 562.938 303.332 530 298.678 523.413C297.124 521.22 294.75 513.795 292.265 504.864C291.288 501.363 290.301 497.636 289.333 493.9C285.405 478.589 281.924 463.184 281.924 463.184L282.855 353.077L231.663 346.49L230.351 349.416L227.736 355.223L227.01 356.842Z" fill="#2F2E41"/>
<path d="M224.216 537.529C224.216 537.529 216.77 530 213.047 537.529C209.324 545.057 205.601 574.231 199.085 580.818C192.57 587.406 184.193 620.344 193.501 622.226C202.808 624.108 213.047 619.403 213.977 613.756C214.908 608.11 234.454 578.936 234.454 576.113C234.454 573.29 221.424 562.938 221.424 562.938L224.216 537.529Z" fill="#2F2E41"/>
<path d="M338.702 305.083C338.702 305.083 326.603 415.189 323.81 425.541C321.018 435.893 306.126 475.418 301.472 482.005C296.818 488.593 267.034 542.234 263.311 545.058C259.588 547.881 252.142 555.41 252.142 555.41C252.142 555.41 238.18 569.526 236.319 572.349C234.457 575.172 218.635 566.703 217.704 561.056C216.773 555.41 218.635 545.999 219.565 542.234C220.496 538.47 217.704 532.824 220.496 530C223.288 527.177 237.25 513.061 237.25 506.473C237.25 499.886 261.449 461.302 270.757 452.832C280.065 444.362 278.203 430.246 278.203 430.246V372.84L227.011 356.842C227.011 356.842 229.804 311.67 236.319 311.67C242.834 311.67 328.464 296.613 338.702 305.083Z" fill="#2F2E41"/>
<path d="M263.31 147.923C280.273 147.923 294.025 134.019 294.025 116.867C294.025 99.7158 280.273 85.8118 263.31 85.8118C246.347 85.8118 232.595 99.7158 232.595 116.867C232.595 134.019 246.347 147.923 263.31 147.923Z" fill="#9F616A"/>
<path d="M273.548 141.335C273.548 141.335 277.271 155.451 281.925 159.215C286.579 162.98 269.825 178.978 269.825 178.978L238.18 180.86L232.595 162.98C232.595 162.98 242.833 142.276 240.041 129.101C237.249 115.926 273.548 141.335 273.548 141.335Z" fill="#9F616A"/>
<path d="M286.578 157.333C286.578 157.333 278.201 158.274 276.34 161.097C274.478 163.921 261.448 172.39 251.209 170.508C240.971 168.626 234.456 165.803 232.594 166.744C230.733 167.685 227.01 187.448 227.01 187.448L237.248 217.562L235.386 300.377L232.594 322.963C232.594 322.963 227.01 315.434 249.348 320.14C271.686 324.845 300.54 316.375 309.847 315.434C319.155 314.493 334.978 311.67 335.908 306.023C336.839 300.377 333.116 279.673 333.116 279.673L318.224 216.621L308.916 182.742L286.578 157.333Z" fill="#5656EF"/>
<path d="M277.777 153.086C277.777 153.086 285.65 148.864 288.443 152.628C291.235 156.392 326.604 162.039 326.604 164.862C326.604 167.685 334.05 243.913 332.188 250.5C330.327 257.088 335.911 264.616 335.911 264.616L342.427 292.849C342.427 292.849 360.111 346.49 352.665 348.372C345.219 350.255 338.704 348.372 335.911 348.372C333.119 348.372 334.05 312.611 326.604 303.201C319.158 293.79 308.919 270.263 307.058 265.557C305.196 260.852 281.927 195.918 282.858 188.389C283.789 180.86 277.777 153.086 277.777 153.086Z" fill="#D0CDE1"/>
<path d="M239.11 157.333C239.11 157.333 231.664 157.333 230.733 159.215C229.802 161.097 220.495 173.331 216.772 176.155C213.049 178.978 200.018 191.212 200.018 194.035C200.018 196.858 227.01 217.562 227.01 217.562C227.01 217.562 238.179 273.086 232.595 291.907C227.01 310.729 218.633 355.9 222.356 358.724C226.079 361.547 234.456 362.488 234.456 358.724C234.456 354.959 240.041 314.493 244.695 306.023C249.348 297.554 263.31 243.912 257.725 228.855C252.141 213.798 239.11 157.333 239.11 157.333Z" fill="#D0CDE1"/>
<path d="M361.97 250.5C361.97 250.5 362.901 279.674 352.662 294.731C342.424 309.788 335.909 326.728 335.909 326.728C335.909 326.728 319.155 322.022 316.363 316.376C313.57 310.729 295.886 315.435 295.886 313.552C295.886 311.67 317.293 302.26 319.155 300.377C321.016 298.495 327.532 298.495 331.255 294.731C334.978 290.967 335.909 282.497 335.909 282.497L339.632 258.029L361.97 250.5Z" fill="#9F616A"/>
<path d="M284.465 97.7188C286.828 97.5018 289.265 97.263 291.354 96.1243C296.033 93.5728 297.274 86.3068 293.712 82.3166C292.729 81.3013 291.631 80.4081 290.439 79.6562L283.364 74.7872C280.235 72.6337 277.032 70.445 273.383 69.4298C270.082 68.5117 266.595 68.606 263.178 68.8208C256.545 69.2376 249.871 70.0987 243.632 72.4143C237.393 74.7299 231.573 78.6039 227.794 84.1319C221.804 92.8955 221.721 104.715 225.021 114.832C228.32 124.949 234.587 133.759 240.762 142.39L243.967 126.583C244.252 125.175 244.621 123.632 245.779 122.799C248.658 120.728 252.179 124.98 255.712 124.952C257.981 124.935 259.887 123.047 260.748 120.923C261.608 118.799 261.664 116.447 261.863 114.16C262.285 109.318 263.959 102.579 268.495 99.9087C272.721 97.42 279.714 98.1551 284.465 97.7188Z" fill="#2F2E41"/>
<path opacity="0.1" d="M282.743 357.601C282.743 357.601 279.599 449.538 277.737 452.361C275.876 455.185 277.737 357.312 277.737 357.312L282.743 357.601Z" fill="black"/>
<path d="M319.153 164.862H326.599C326.599 164.862 358.245 208.152 354.522 210.975C350.799 213.798 354.522 221.327 354.522 221.327L361.968 235.443C361.968 235.443 371.276 243.913 368.484 245.795C365.691 247.677 361.968 255.206 361.968 255.206C361.968 255.206 343.353 252.382 337.769 263.675L325.697 248.266L319.153 164.862Z" fill="#D0CDE1"/>
<path d="M321.786 178.786L296.236 189.454L315.898 237.596L341.448 226.928L321.786 178.786Z" fill="#2F2E41"/>
<path d="M318.795 207.021C321.617 205.843 323.037 202.763 321.966 200.141C320.896 197.52 317.74 196.35 314.918 197.529C312.096 198.707 310.676 201.787 311.746 204.409C312.817 207.03 315.973 208.2 318.795 207.021Z" fill="#5656EF"/>
<path d="M300.538 240.148C300.538 240.148 233.524 296.613 222.354 278.732C211.185 260.852 234.454 245.794 234.454 245.794C234.454 245.794 254.931 246.735 278.2 231.678L301.469 221.326C301.469 221.326 322.712 190.662 329.951 202.339C337.19 214.015 317.594 234.338 300.538 240.148Z" fill="#9F616A"/>
<path d="M210.257 190.271L200.018 194.035V222.268L196.295 227.914C196.295 227.914 197.226 239.207 200.018 242.03C202.811 244.854 208.395 243.912 206.534 250.5C205.415 254.795 205.099 259.263 205.603 263.675C205.603 263.675 222.357 285.32 223.287 282.497C224.218 279.673 237.249 244.853 239.11 244.853C240.972 244.853 220.495 190.271 220.495 190.271H210.257Z" fill="#D0CDE1"/>
<path d="M332.65 332.845C332.65 332.845 342.273 323.434 337.461 322.964C332.65 322.493 315.896 313.082 313.104 317.788C310.311 322.493 332.65 332.845 332.65 332.845Z" fill="#2F2E41"/>
<path d="M515.689 153.325C523.105 153.325 529.116 150.107 529.116 146.138C529.116 142.169 523.105 138.951 515.689 138.951C508.274 138.951 502.263 142.169 502.263 146.138C502.263 150.107 508.274 153.325 515.689 153.325Z" fill="#57B894"/>
<path d="M567.025 170.095C536.749 158.533 506.473 158.533 476.197 170.095V132.562C505.814 123.526 537.409 123.526 567.025 132.562V170.095Z" stroke="#3F3D56" stroke-width="2" stroke-miterlimit="10"/>
<path d="M554.389 162.333C532.538 153.988 510.687 153.988 488.835 162.333V135.244C510.211 128.722 533.014 128.722 554.389 135.244V162.333Z" stroke="#3F3D56" stroke-width="2" stroke-miterlimit="10"/>
<path d="M520.427 150.131C527.842 150.131 533.853 146.913 533.853 142.944C533.853 138.975 527.842 135.757 520.427 135.757C513.011 135.757 507 138.975 507 142.944C507 146.913 513.011 150.131 520.427 150.131Z" stroke="#3F3D56" stroke-width="2" stroke-miterlimit="10"/>
<path d="M525.561 198.335C532.826 196.836 538.08 192.467 537.295 188.578C536.51 184.689 529.983 182.752 522.718 184.251C515.452 185.75 510.198 190.119 510.983 194.008C511.769 197.897 518.295 199.834 525.561 198.335Z" fill="#57B894"/>
<path d="M579.18 204.386C547.229 199.179 517.565 205.301 490.187 222.75L482.763 185.976C509.995 171.134 540.951 164.746 571.757 167.611L579.18 204.386Z" stroke="#3F3D56" stroke-width="2" stroke-miterlimit="10"/>
<path d="M565.261 199.336C542.201 195.578 520.791 199.996 501.031 212.59L495.673 186.048C515.327 175.337 537.67 170.726 559.903 172.794L565.261 199.336Z" stroke="#3F3D56" stroke-width="2" stroke-miterlimit="10"/>
<path d="M529.572 194.247C536.837 192.748 542.091 188.379 541.306 184.49C540.521 180.601 533.995 178.664 526.729 180.163C519.463 181.662 514.21 186.031 514.995 189.92C515.78 193.809 522.306 195.746 529.572 194.247Z" stroke="#3F3D56" stroke-width="2" stroke-miterlimit="10"/>
<path d="M534.75 236.907C535.022 232.947 529.246 229.315 521.849 228.795C514.451 228.274 508.233 231.062 507.961 235.022C507.688 238.982 513.464 242.614 520.862 243.134C528.259 243.655 534.477 240.866 534.75 236.907Z" fill="#57B894"/>
<path d="M570.923 263.467C541.514 249.808 511.311 247.683 480.314 257.091L482.891 219.649C513.057 212.714 544.575 214.932 573.5 226.025L570.923 263.467Z" stroke="#3F3D56" stroke-width="2" stroke-miterlimit="10"/>
<path d="M558.851 254.837C537.625 244.979 515.826 243.445 493.455 250.236L495.314 223.212C517.086 218.206 539.834 219.807 560.71 227.813L558.851 254.837Z" stroke="#3F3D56" stroke-width="2" stroke-miterlimit="10"/>
<path d="M539.695 234.052C539.967 230.093 534.191 226.461 526.794 225.94C519.396 225.42 513.179 228.208 512.906 232.168C512.634 236.127 518.409 239.759 525.807 240.28C533.204 240.8 539.422 238.012 539.695 234.052Z" stroke="#3F3D56" stroke-width="2" stroke-miterlimit="10"/>
<path d="M462.71 170.966C462.71 170.966 404.662 162.937 363.208 187.499" stroke="#3F3D56" stroke-width="2" stroke-miterlimit="10"/>
<path d="M394.496 179.246L396.2 179.728L393.536 187.234L402.1 189.062L401.683 190.616L391.255 188.388L394.496 179.246Z" fill="#3F3D56"/>
</svg>
